# xmcd CD database file
#
# Track frame offsets:
#	150
#	12317
#	24757
#	38698
#	53731
#	68686
#	80905
#	115080
#	125520
#	139617
#	154792
#	172120
#	195401
#	219152
#	231862
#	248043
#	266372
#
# Disc length: 4085 seconds
#
# Revision: 0
# Processed by: cddbd v1.5.2PL0 Copyright (c) Steve Scherf et al.
# Submitted via: CDex 1.51
#
DISCID=d90ff311
DTITLE=American Jazzmen in Paris - American Jazzmen in Paris
DYEAR=2013
DGENRE=Jazz
TTITLE0=Bugle Call Rag
TTITLE1=Honey Suckle Rose
TTITLE2=Montmartre Blues
TTITLE3=The Mohawk Special
TTITLE4=Indiana
TTITLE5=Voilà
TTITLE6=Wailin' With Saury
TTITLE7=Joshua Fit The Battle Of Jericho
TTITLE8=The Sheik Of Araby
TTITLE9=Evening In Paris
TTITLE10=Hamp swings the bells (ring dem bells)
TTITLE11=You Are My Dream
TTITLE12=Concerto For Cootie
TTITLE13=Sixty Five Faubourg
TTITLE14=Alive And Well
TTITLE15=Impossible Waltz
TTITLE16=Theme libre
EXTD=YEAR: 2013
EXTT0=
EXTT1=
EXTT2=
EXTT3=
EXTT4=
EXTT5=
EXTT6=
EXTT7=
EXTT8=
EXTT9=
EXTT10=
EXTT11=
EXTT12=
EXTT13=
EXTT14=
EXTT15=
EXTT16=
PLAYORDER=
